<mxfile host="app.diagrams.net" agent="Mozilla/5.0 (Windows NT 10.0; Win64; x64) AppleWebKit/537.36 (KHTML, like Gecko) Chrome/134.0.0.0 Safari/537.36" version="26.1.1">
  <diagram name="第 1 页" id="4aTI_xNLZGXozaGMwqnL">
    <mxGraphModel dx="1043" dy="500" grid="1" gridSize="10" guides="1" tooltips="1" connect="1" arrows="1" fold="1" page="1" pageScale="1" pageWidth="2000" pageHeight="2000" math="0" shadow="0">
      <root>
        <mxCell id="0" />
        <mxCell id="1" parent="0" />
        <mxCell id="cZVvwm0Kt41P4XqhGF9Q-1" value="&lt;b&gt;&lt;font style=&quot;font-size: 16px;&quot;&gt;换向手柄&lt;/font&gt;&lt;/b&gt;" style="rounded=1;whiteSpace=wrap;html=1;" vertex="1" parent="1">
          <mxGeometry x="410" y="200" width="510" height="60" as="geometry" />
        </mxCell>
        <mxCell id="cZVvwm0Kt41P4XqhGF9Q-2" value="" style="endArrow=none;html=1;rounded=0;entryX=1;entryY=0;entryDx=0;entryDy=0;" edge="1" parent="1" target="cZVvwm0Kt41P4XqhGF9Q-6">
          <mxGeometry width="50" height="50" relative="1" as="geometry">
            <mxPoint x="470" y="710" as="sourcePoint" />
            <mxPoint x="470" y="200" as="targetPoint" />
          </mxGeometry>
        </mxCell>
        <mxCell id="cZVvwm0Kt41P4XqhGF9Q-3" value="" style="endArrow=none;html=1;rounded=0;entryX=1;entryY=0;entryDx=0;entryDy=0;" edge="1" parent="1" target="cZVvwm0Kt41P4XqhGF9Q-7">
          <mxGeometry width="50" height="50" relative="1" as="geometry">
            <mxPoint x="590" y="710" as="sourcePoint" />
            <mxPoint x="590" y="200" as="targetPoint" />
          </mxGeometry>
        </mxCell>
        <mxCell id="cZVvwm0Kt41P4XqhGF9Q-4" value="" style="endArrow=none;html=1;rounded=0;entryX=1;entryY=0;entryDx=0;entryDy=0;" edge="1" parent="1" target="cZVvwm0Kt41P4XqhGF9Q-8">
          <mxGeometry width="50" height="50" relative="1" as="geometry">
            <mxPoint x="720" y="710" as="sourcePoint" />
            <mxPoint x="720" y="200" as="targetPoint" />
          </mxGeometry>
        </mxCell>
        <mxCell id="cZVvwm0Kt41P4XqhGF9Q-5" value="" style="endArrow=none;html=1;rounded=0;entryX=1;entryY=0;entryDx=0;entryDy=0;" edge="1" parent="1" target="cZVvwm0Kt41P4XqhGF9Q-9">
          <mxGeometry width="50" height="50" relative="1" as="geometry">
            <mxPoint x="850" y="380" as="sourcePoint" />
            <mxPoint x="850" y="200" as="targetPoint" />
          </mxGeometry>
        </mxCell>
        <mxCell id="cZVvwm0Kt41P4XqhGF9Q-6" value="1" style="text;html=1;align=center;verticalAlign=middle;whiteSpace=wrap;rounded=0;strokeWidth=3;fontStyle=1;fontSize=21;" vertex="1" parent="1">
          <mxGeometry x="410" y="260" width="60" height="30" as="geometry" />
        </mxCell>
        <mxCell id="cZVvwm0Kt41P4XqhGF9Q-7" value="2" style="text;html=1;align=center;verticalAlign=middle;whiteSpace=wrap;rounded=0;strokeWidth=3;fontStyle=1;fontSize=21;" vertex="1" parent="1">
          <mxGeometry x="530" y="260" width="60" height="30" as="geometry" />
        </mxCell>
        <mxCell id="cZVvwm0Kt41P4XqhGF9Q-8" value="3" style="text;html=1;align=center;verticalAlign=middle;whiteSpace=wrap;rounded=0;strokeWidth=3;fontStyle=1;fontSize=21;" vertex="1" parent="1">
          <mxGeometry x="660" y="260" width="60" height="30" as="geometry" />
        </mxCell>
        <mxCell id="cZVvwm0Kt41P4XqhGF9Q-9" value="4" style="text;html=1;align=center;verticalAlign=middle;whiteSpace=wrap;rounded=0;strokeWidth=3;fontStyle=1;fontSize=21;" vertex="1" parent="1">
          <mxGeometry x="790" y="260" width="60" height="30" as="geometry" />
        </mxCell>
        <mxCell id="cZVvwm0Kt41P4XqhGF9Q-10" value="" style="endArrow=none;html=1;rounded=0;" edge="1" parent="1">
          <mxGeometry width="50" height="50" relative="1" as="geometry">
            <mxPoint x="850" y="710" as="sourcePoint" />
            <mxPoint x="850" y="480" as="targetPoint" />
          </mxGeometry>
        </mxCell>
        <mxCell id="cZVvwm0Kt41P4XqhGF9Q-11" value="" style="endArrow=none;dashed=1;html=1;dashPattern=1 3;strokeWidth=2;rounded=0;" edge="1" parent="1">
          <mxGeometry width="50" height="50" relative="1" as="geometry">
            <mxPoint x="850" y="480" as="sourcePoint" />
            <mxPoint x="850" y="380" as="targetPoint" />
          </mxGeometry>
        </mxCell>
        <mxCell id="cZVvwm0Kt41P4XqhGF9Q-12" value="" style="endArrow=classic;html=1;rounded=0;" edge="1" parent="1">
          <mxGeometry width="50" height="50" relative="1" as="geometry">
            <mxPoint x="850" y="380" as="sourcePoint" />
            <mxPoint x="970" y="380" as="targetPoint" />
          </mxGeometry>
        </mxCell>
        <mxCell id="cZVvwm0Kt41P4XqhGF9Q-15" value="P3-11-COM71" style="edgeLabel;html=1;align=center;verticalAlign=middle;resizable=0;points=[];fontSize=14;" vertex="1" connectable="0" parent="cZVvwm0Kt41P4XqhGF9Q-12">
          <mxGeometry x="-0.1944" y="-1" relative="1" as="geometry">
            <mxPoint x="12" as="offset" />
          </mxGeometry>
        </mxCell>
        <mxCell id="cZVvwm0Kt41P4XqhGF9Q-13" value="" style="endArrow=classic;html=1;rounded=0;" edge="1" parent="1">
          <mxGeometry width="50" height="50" relative="1" as="geometry">
            <mxPoint x="850" y="480" as="sourcePoint" />
            <mxPoint x="970" y="480" as="targetPoint" />
          </mxGeometry>
        </mxCell>
        <mxCell id="cZVvwm0Kt41P4XqhGF9Q-16" value="P3-34-NC71" style="edgeLabel;html=1;align=center;verticalAlign=middle;resizable=0;points=[];fontSize=14;" vertex="1" connectable="0" parent="cZVvwm0Kt41P4XqhGF9Q-13">
          <mxGeometry x="-0.1944" y="-1" relative="1" as="geometry">
            <mxPoint x="12" as="offset" />
          </mxGeometry>
        </mxCell>
        <mxCell id="cZVvwm0Kt41P4XqhGF9Q-14" value="&lt;font style=&quot;font-size: 14px;&quot;&gt;NMC308-P3插头&lt;/font&gt;" style="rounded=1;whiteSpace=wrap;html=1;" vertex="1" parent="1">
          <mxGeometry x="973" y="330" width="80" height="390" as="geometry" />
        </mxCell>
        <mxCell id="cZVvwm0Kt41P4XqhGF9Q-17" value="" style="endArrow=classic;html=1;rounded=0;" edge="1" parent="1">
          <mxGeometry width="50" height="50" relative="1" as="geometry">
            <mxPoint x="850" y="540" as="sourcePoint" />
            <mxPoint x="970" y="541" as="targetPoint" />
          </mxGeometry>
        </mxCell>
        <mxCell id="cZVvwm0Kt41P4XqhGF9Q-18" value="P3-25-COM62" style="edgeLabel;html=1;align=center;verticalAlign=middle;resizable=0;points=[];fontSize=14;" vertex="1" connectable="0" parent="cZVvwm0Kt41P4XqhGF9Q-17">
          <mxGeometry x="-0.2621" y="-1" relative="1" as="geometry">
            <mxPoint x="17" as="offset" />
          </mxGeometry>
        </mxCell>
        <mxCell id="cZVvwm0Kt41P4XqhGF9Q-19" value="" style="endArrow=classic;html=1;rounded=0;" edge="1" parent="1">
          <mxGeometry width="50" height="50" relative="1" as="geometry">
            <mxPoint x="720" y="580" as="sourcePoint" />
            <mxPoint x="970" y="580" as="targetPoint" />
          </mxGeometry>
        </mxCell>
        <mxCell id="cZVvwm0Kt41P4XqhGF9Q-25" value="&lt;span style=&quot;font-size: 14px;&quot;&gt;P3-26-COM61&lt;/span&gt;" style="edgeLabel;html=1;align=center;verticalAlign=middle;resizable=0;points=[];" vertex="1" connectable="0" parent="cZVvwm0Kt41P4XqhGF9Q-19">
          <mxGeometry x="0.3267" y="3" relative="1" as="geometry">
            <mxPoint x="24" as="offset" />
          </mxGeometry>
        </mxCell>
        <mxCell id="cZVvwm0Kt41P4XqhGF9Q-20" value="" style="endArrow=classic;html=1;rounded=0;" edge="1" parent="1">
          <mxGeometry width="50" height="50" relative="1" as="geometry">
            <mxPoint x="590" y="630" as="sourcePoint" />
            <mxPoint x="970" y="629" as="targetPoint" />
          </mxGeometry>
        </mxCell>
        <mxCell id="cZVvwm0Kt41P4XqhGF9Q-24" value="&lt;span style=&quot;font-size: 14px;&quot;&gt;P3-13-C&lt;span style=&quot;cursor: pointer; border-bottom: 2px dotted rgb(51, 153, 255);&quot; data-kimi-recommend=&quot;false&quot; data-kimi-disabled=&quot;false&quot; data-kimi-id=&quot;1743038468778&quot;&gt;OM&lt;/span&gt;64&lt;/span&gt;" style="edgeLabel;html=1;align=center;verticalAlign=middle;resizable=0;points=[];" vertex="1" connectable="0" parent="cZVvwm0Kt41P4XqhGF9Q-20">
          <mxGeometry x="0.5482" y="-4" relative="1" as="geometry">
            <mxPoint x="26" as="offset" />
          </mxGeometry>
        </mxCell>
        <mxCell id="cZVvwm0Kt41P4XqhGF9Q-21" value="" style="endArrow=classic;html=1;rounded=0;" edge="1" parent="1">
          <mxGeometry width="50" height="50" relative="1" as="geometry">
            <mxPoint x="470" y="660" as="sourcePoint" />
            <mxPoint x="970" y="660" as="targetPoint" />
          </mxGeometry>
        </mxCell>
        <mxCell id="cZVvwm0Kt41P4XqhGF9Q-23" value="&lt;span style=&quot;font-size: 14px;&quot;&gt;P3-24-COM63&lt;/span&gt;" style="edgeLabel;html=1;align=center;verticalAlign=middle;resizable=0;points=[];" vertex="1" connectable="0" parent="cZVvwm0Kt41P4XqhGF9Q-21">
          <mxGeometry x="0.7333" y="2" relative="1" as="geometry">
            <mxPoint x="7" as="offset" />
          </mxGeometry>
        </mxCell>
      </root>
    </mxGraphModel>
  </diagram>
</mxfile>
